<svg xmlns="http://www.w3.org/2000/svg" width="60.333" height="27.187" viewBox="0 0 60.333 27.187">
  <g id="Group_1" data-name="Group 1" transform="translate(-698.833 -427)">
    <path id="Path_1" data-name="Path 1" d="M716.732,440.116a.669.669,0,0,1,.833-.414l.044.014a.669.669,0,0,1,.43.853l-4.666,13.716h0a1.517,1.517,0,0,1-1.4-.936l-8.789-21.173c-1.371-3.337-1.907-3.873-4.35-3.992v-1.072H709.5v1.013h-1.116a1.527,1.527,0,0,0-1.161,2.53,11.329,11.329,0,0,1,2.158,3.489l3.468,8.942a1.517,1.517,0,0,0,2.845-.041Zm5.3-11.993a1.527,1.527,0,0,0-1.161,2.53,11.332,11.332,0,0,1,2.158,3.489l5.58,14.324a1.517,1.517,0,0,1,.024,1.035l-1.612,4.782h0a1.517,1.517,0,0,1-1.4-.936l-8.789-21.173c-1.371-3.337-1.907-3.873-4.35-3.992v-1.072h13.706v1.013Zm7.135-1.013h10.786v1.013c-2.8.358-4.648,1.729-6.138,6.138l-2.229,6.523a.669.669,0,0,1-.845.418h0a.673.673,0,0,1-.426-.837c1.994-6.429,2.665-8.707,2.665-9.977,0-1.49-.715-1.907-3.814-2.265Z" transform="translate(0 -0.098)" fill="#fff"/>
    <path id="Path_2" data-name="Path 2" d="M1060.918,453.841c-3.628-.4-5.241-1.612-5.241-3.859a2.242,2.242,0,0,1,2.246-2.361c1.9,0,2.995,1.555,2.995,4.147Zm5.011-.69a4.839,4.839,0,0,0,4.723-4.839c0-1.728-1.21-3.053-3.917-4.262l-4.9-2.189c-3.8-1.671-5.875-4.435-5.875-7.834,0-3.859,2.938-6.566,7.661-7.027v1.037c-2.534.4-3.8,1.844-3.8,4.205,0,1.958,1.21,3.456,3.686,4.608l5.818,2.649c3.571,1.613,5.241,3.86,5.241,7.027,0,4.435-3.226,7.315-8.64,7.661Zm2.3-23.789v-2.073c3.628.4,5.241,1.612,5.241,3.859a2.242,2.242,0,0,1-2.247,2.361C1069.328,433.509,1068.233,431.953,1068.233,429.361Z" transform="translate(-315.403)" fill="#fff"/>
  </g>
</svg>
